<?xml version="1.0" encoding="UTF-8" standalone="no" ?>
<!DOCTYPE svg PUBLIC "-//W3C//DTD SVG 1.1//EN" "http://www.w3.org/Graphics/SVG/1.1/DTD/svg11.dtd">
<svg xmlns="http://www.w3.org/2000/svg" xmlns:xlink="http://www.w3.org/1999/xlink" version="1.1" width="1080" height="1080" viewBox="0 0 1080 1080" xml:space="preserve">
<desc>Created with Fabric.js 5.2.4</desc>
<defs>
</defs>
<rect x="0" y="0" width="100%" height="100%" fill="transparent"></rect>
<g transform="matrix(1 0 0 1 540 540)" id="68946d50-4887-40f9-9200-096ea04a0bbd"  >
</g>
<g transform="matrix(1 0 0 1 540 540)" id="d4ab2ef8-83ca-40b1-8912-3309ef3598dd"  >
<rect style="stroke: none; stroke-width: 1; stroke-dasharray: none; stroke-linecap: butt; stroke-dashoffset: 0; stroke-linejoin: miter; stroke-miterlimit: 4; fill: rgb(255,255,255); fill-rule: nonzero; opacity: 1; visibility: hidden;" vector-effect="non-scaling-stroke"  x="-540" y="-540" rx="0" ry="0" width="1080" height="1080" />
</g>
<g transform="matrix(6.16 0 0 5.93 356.57 399.84)"  >
<g style="" vector-effect="non-scaling-stroke"   >
		<g transform="matrix(1 0 0 1 -7.5 -7.5)"  >
<circle style="stroke: rgb(0,0,0); stroke-width: 2; stroke-dasharray: none; stroke-linecap: butt; stroke-dashoffset: 0; stroke-linejoin: miter; stroke-miterlimit: 4; fill: rgb(0,0,0); fill-rule: nonzero; opacity: 1;" vector-effect="non-scaling-stroke"  cx="0" cy="0" r="1.5" />
</g>
		<g transform="matrix(1 0 0 1 7.5 -7.5)"  >
<circle style="stroke: rgb(0,0,0); stroke-width: 2; stroke-dasharray: none; stroke-linecap: butt; stroke-dashoffset: 0; stroke-linejoin: miter; stroke-miterlimit: 4; fill: rgb(0,0,0); fill-rule: nonzero; opacity: 1;" vector-effect="non-scaling-stroke"  cx="0" cy="0" r="1.5" />
</g>
		<g transform="matrix(1 0 0 1 0 0)"  >
<path style="stroke: rgb(0,0,0); stroke-width: 2; stroke-dasharray: none; stroke-linecap: butt; stroke-dashoffset: 0; stroke-linejoin: miter; stroke-miterlimit: 4; fill: rgb(0,0,0); fill-rule: nonzero; opacity: 1;" vector-effect="non-scaling-stroke"  transform=" translate(-12, -12)" d="M 13.5 4.5 C 13.5 5.32842712474619 12.82842712474619 6 12 6 C 11.17157287525381 6 10.5 5.32842712474619 10.5 4.5 C 10.5 3.6715728752538097 11.17157287525381 3 12 3 C 12.82842712474619 3 13.5 3.6715728752538093 13.5 4.5 z M 13.5 19.5 C 13.5 20.32842712474619 12.82842712474619 21 12 21 C 11.17157287525381 21 10.5 20.32842712474619 10.5 19.5 C 10.5 18.67157287525381 11.17157287525381 18 12 18 C 12.82842712474619 18 13.5 18.67157287525381 13.5 19.5 z" stroke-linecap="round" />
</g>
		<g transform="matrix(1 0 0 1 7.5 7.5)"  >
<circle style="stroke: rgb(0,0,0); stroke-width: 2; stroke-dasharray: none; stroke-linecap: butt; stroke-dashoffset: 0; stroke-linejoin: miter; stroke-miterlimit: 4; fill: rgb(0,0,0); fill-rule: nonzero; opacity: 1;" vector-effect="non-scaling-stroke"  cx="0" cy="0" r="1.5" />
</g>
		<g transform="matrix(1 0 0 1 -7.5 7.5)"  >
<circle style="stroke: rgb(0,0,0); stroke-width: 2; stroke-dasharray: none; stroke-linecap: butt; stroke-dashoffset: 0; stroke-linejoin: miter; stroke-miterlimit: 4; fill: rgb(0,0,0); fill-rule: nonzero; opacity: 1;" vector-effect="non-scaling-stroke"  cx="0" cy="0" r="1.5" />
</g>
		<g transform="matrix(1 0 0 1 0 0)"  >
<path style="stroke: rgb(0,0,0); stroke-width: 2; stroke-dasharray: none; stroke-linecap: butt; stroke-dashoffset: 0; stroke-linejoin: miter; stroke-miterlimit: 4; fill: rgb(0,0,0); fill-rule: nonzero; opacity: 1;" vector-effect="non-scaling-stroke"  transform=" translate(-12, -12)" d="M 6 12 C 6 12.82842712474619 5.32842712474619 13.5 4.5 13.5 C 3.6715728752538097 13.5 3 12.82842712474619 3 12 C 3 11.17157287525381 3.6715728752538097 10.5 4.5 10.5 C 5.32842712474619 10.5 6 11.17157287525381 6 12 z M 13.5 12 C 13.5 12.82842712474619 12.82842712474619 13.5 12 13.5 C 11.17157287525381 13.5 10.5 12.82842712474619 10.5 12 C 10.5 11.17157287525381 11.17157287525381 10.5 12 10.5 C 12.82842712474619 10.5 13.5 11.17157287525381 13.5 12 z M 21 12 C 21 12.82842712474619 20.32842712474619 13.5 19.5 13.5 C 18.67157287525381 13.5 18 12.82842712474619 18 12 C 18 11.17157287525381 18.67157287525381 10.5 19.5 10.5 C 20.32842712474619 10.5 21 11.17157287525381 21 12 z" stroke-linecap="round" />
</g>
</g>
</g>
<g transform="matrix(6.16 0 0 5.93 403.67 399.24)"  >
<g style="" vector-effect="non-scaling-stroke"   >
		<g transform="matrix(1 0 0 1 -7.5 -7.5)"  >
<circle style="stroke: rgb(0,0,0); stroke-width: 2; stroke-dasharray: none; stroke-linecap: butt; stroke-dashoffset: 0; stroke-linejoin: miter; stroke-miterlimit: 4; fill: rgb(0,0,0); fill-rule: nonzero; opacity: 1;" vector-effect="non-scaling-stroke"  cx="0" cy="0" r="1.5" />
</g>
		<g transform="matrix(1 0 0 1 7.5 -7.5)"  >
<circle style="stroke: rgb(0,0,0); stroke-width: 2; stroke-dasharray: none; stroke-linecap: butt; stroke-dashoffset: 0; stroke-linejoin: miter; stroke-miterlimit: 4; fill: rgb(0,0,0); fill-rule: nonzero; opacity: 1;" vector-effect="non-scaling-stroke"  cx="0" cy="0" r="1.5" />
</g>
		<g transform="matrix(1 0 0 1 0 0)"  >
<path style="stroke: rgb(0,0,0); stroke-width: 2; stroke-dasharray: none; stroke-linecap: butt; stroke-dashoffset: 0; stroke-linejoin: miter; stroke-miterlimit: 4; fill: rgb(0,0,0); fill-rule: nonzero; opacity: 1;" vector-effect="non-scaling-stroke"  transform=" translate(-12, -12)" d="M 13.5 4.5 C 13.5 5.32842712474619 12.82842712474619 6 12 6 C 11.17157287525381 6 10.5 5.32842712474619 10.5 4.5 C 10.5 3.6715728752538097 11.17157287525381 3 12 3 C 12.82842712474619 3 13.5 3.6715728752538093 13.5 4.5 z M 13.5 19.5 C 13.5 20.32842712474619 12.82842712474619 21 12 21 C 11.17157287525381 21 10.5 20.32842712474619 10.5 19.5 C 10.5 18.67157287525381 11.17157287525381 18 12 18 C 12.82842712474619 18 13.5 18.67157287525381 13.5 19.5 z" stroke-linecap="round" />
</g>
		<g transform="matrix(1 0 0 1 7.5 7.5)"  >
<circle style="stroke: rgb(0,0,0); stroke-width: 2; stroke-dasharray: none; stroke-linecap: butt; stroke-dashoffset: 0; stroke-linejoin: miter; stroke-miterlimit: 4; fill: rgb(0,0,0); fill-rule: nonzero; opacity: 1;" vector-effect="non-scaling-stroke"  cx="0" cy="0" r="1.5" />
</g>
		<g transform="matrix(1 0 0 1 -7.5 7.5)"  >
<circle style="stroke: rgb(0,0,0); stroke-width: 2; stroke-dasharray: none; stroke-linecap: butt; stroke-dashoffset: 0; stroke-linejoin: miter; stroke-miterlimit: 4; fill: rgb(0,0,0); fill-rule: nonzero; opacity: 1;" vector-effect="non-scaling-stroke"  cx="0" cy="0" r="1.5" />
</g>
		<g transform="matrix(1 0 0 1 0 0)"  >
<path style="stroke: rgb(0,0,0); stroke-width: 2; stroke-dasharray: none; stroke-linecap: butt; stroke-dashoffset: 0; stroke-linejoin: miter; stroke-miterlimit: 4; fill: rgb(0,0,0); fill-rule: nonzero; opacity: 1;" vector-effect="non-scaling-stroke"  transform=" translate(-12, -12)" d="M 6 12 C 6 12.82842712474619 5.32842712474619 13.5 4.5 13.5 C 3.6715728752538097 13.5 3 12.82842712474619 3 12 C 3 11.17157287525381 3.6715728752538097 10.5 4.5 10.5 C 5.32842712474619 10.5 6 11.17157287525381 6 12 z M 13.5 12 C 13.5 12.82842712474619 12.82842712474619 13.5 12 13.5 C 11.17157287525381 13.5 10.5 12.82842712474619 10.5 12 C 10.5 11.17157287525381 11.17157287525381 10.5 12 10.5 C 12.82842712474619 10.5 13.5 11.17157287525381 13.5 12 z M 21 12 C 21 12.82842712474619 20.32842712474619 13.5 19.5 13.5 C 18.67157287525381 13.5 18 12.82842712474619 18 12 C 18 11.17157287525381 18.67157287525381 10.5 19.5 10.5 C 20.32842712474619 10.5 21 11.17157287525381 21 12 z" stroke-linecap="round" />
</g>
</g>
</g>
<g transform="matrix(6.16 0 0 5.93 355.97 540.3)"  >
<g style="" vector-effect="non-scaling-stroke"   >
		<g transform="matrix(1 0 0 1 -7.5 -7.5)"  >
<circle style="stroke: rgb(0,0,0); stroke-width: 2; stroke-dasharray: none; stroke-linecap: butt; stroke-dashoffset: 0; stroke-linejoin: miter; stroke-miterlimit: 4; fill: rgb(0,0,0); fill-rule: nonzero; opacity: 1;" vector-effect="non-scaling-stroke"  cx="0" cy="0" r="1.5" />
</g>
		<g transform="matrix(1 0 0 1 7.5 -7.5)"  >
<circle style="stroke: rgb(0,0,0); stroke-width: 2; stroke-dasharray: none; stroke-linecap: butt; stroke-dashoffset: 0; stroke-linejoin: miter; stroke-miterlimit: 4; fill: rgb(0,0,0); fill-rule: nonzero; opacity: 1;" vector-effect="non-scaling-stroke"  cx="0" cy="0" r="1.5" />
</g>
		<g transform="matrix(1 0 0 1 0 0)"  >
<path style="stroke: rgb(0,0,0); stroke-width: 2; stroke-dasharray: none; stroke-linecap: butt; stroke-dashoffset: 0; stroke-linejoin: miter; stroke-miterlimit: 4; fill: rgb(0,0,0); fill-rule: nonzero; opacity: 1;" vector-effect="non-scaling-stroke"  transform=" translate(-12, -12)" d="M 13.5 4.5 C 13.5 5.32842712474619 12.82842712474619 6 12 6 C 11.17157287525381 6 10.5 5.32842712474619 10.5 4.5 C 10.5 3.6715728752538097 11.17157287525381 3 12 3 C 12.82842712474619 3 13.5 3.6715728752538093 13.5 4.5 z M 13.5 19.5 C 13.5 20.32842712474619 12.82842712474619 21 12 21 C 11.17157287525381 21 10.5 20.32842712474619 10.5 19.5 C 10.5 18.67157287525381 11.17157287525381 18 12 18 C 12.82842712474619 18 13.5 18.67157287525381 13.5 19.5 z" stroke-linecap="round" />
</g>
		<g transform="matrix(1 0 0 1 7.5 7.5)"  >
<circle style="stroke: rgb(0,0,0); stroke-width: 2; stroke-dasharray: none; stroke-linecap: butt; stroke-dashoffset: 0; stroke-linejoin: miter; stroke-miterlimit: 4; fill: rgb(0,0,0); fill-rule: nonzero; opacity: 1;" vector-effect="non-scaling-stroke"  cx="0" cy="0" r="1.5" />
</g>
		<g transform="matrix(1 0 0 1 -7.5 7.5)"  >
<circle style="stroke: rgb(0,0,0); stroke-width: 2; stroke-dasharray: none; stroke-linecap: butt; stroke-dashoffset: 0; stroke-linejoin: miter; stroke-miterlimit: 4; fill: rgb(0,0,0); fill-rule: nonzero; opacity: 1;" vector-effect="non-scaling-stroke"  cx="0" cy="0" r="1.5" />
</g>
		<g transform="matrix(1 0 0 1 0 0)"  >
<path style="stroke: rgb(0,0,0); stroke-width: 2; stroke-dasharray: none; stroke-linecap: butt; stroke-dashoffset: 0; stroke-linejoin: miter; stroke-miterlimit: 4; fill: rgb(0,0,0); fill-rule: nonzero; opacity: 1;" vector-effect="non-scaling-stroke"  transform=" translate(-12, -12)" d="M 6 12 C 6 12.82842712474619 5.32842712474619 13.5 4.5 13.5 C 3.6715728752538097 13.5 3 12.82842712474619 3 12 C 3 11.17157287525381 3.6715728752538097 10.5 4.5 10.5 C 5.32842712474619 10.5 6 11.17157287525381 6 12 z M 13.5 12 C 13.5 12.82842712474619 12.82842712474619 13.5 12 13.5 C 11.17157287525381 13.5 10.5 12.82842712474619 10.5 12 C 10.5 11.17157287525381 11.17157287525381 10.5 12 10.5 C 12.82842712474619 10.5 13.5 11.17157287525381 13.5 12 z M 21 12 C 21 12.82842712474619 20.32842712474619 13.5 19.5 13.5 C 18.67157287525381 13.5 18 12.82842712474619 18 12 C 18 11.17157287525381 18.67157287525381 10.5 19.5 10.5 C 20.32842712474619 10.5 21 11.17157287525381 21 12 z" stroke-linecap="round" />
</g>
</g>
</g>
<g transform="matrix(6.16 0 0 5.93 403.06 540)"  >
<g style="" vector-effect="non-scaling-stroke"   >
		<g transform="matrix(1 0 0 1 -7.5 -7.5)"  >
<circle style="stroke: rgb(0,0,0); stroke-width: 2; stroke-dasharray: none; stroke-linecap: butt; stroke-dashoffset: 0; stroke-linejoin: miter; stroke-miterlimit: 4; fill: rgb(0,0,0); fill-rule: nonzero; opacity: 1;" vector-effect="non-scaling-stroke"  cx="0" cy="0" r="1.5" />
</g>
		<g transform="matrix(1 0 0 1 7.5 -7.5)"  >
<circle style="stroke: rgb(0,0,0); stroke-width: 2; stroke-dasharray: none; stroke-linecap: butt; stroke-dashoffset: 0; stroke-linejoin: miter; stroke-miterlimit: 4; fill: rgb(0,0,0); fill-rule: nonzero; opacity: 1;" vector-effect="non-scaling-stroke"  cx="0" cy="0" r="1.5" />
</g>
		<g transform="matrix(1 0 0 1 0 0)"  >
<path style="stroke: rgb(0,0,0); stroke-width: 2; stroke-dasharray: none; stroke-linecap: butt; stroke-dashoffset: 0; stroke-linejoin: miter; stroke-miterlimit: 4; fill: rgb(0,0,0); fill-rule: nonzero; opacity: 1;" vector-effect="non-scaling-stroke"  transform=" translate(-12, -12)" d="M 13.5 4.5 C 13.5 5.32842712474619 12.82842712474619 6 12 6 C 11.17157287525381 6 10.5 5.32842712474619 10.5 4.5 C 10.5 3.6715728752538097 11.17157287525381 3 12 3 C 12.82842712474619 3 13.5 3.6715728752538093 13.5 4.5 z M 13.5 19.5 C 13.5 20.32842712474619 12.82842712474619 21 12 21 C 11.17157287525381 21 10.5 20.32842712474619 10.5 19.5 C 10.5 18.67157287525381 11.17157287525381 18 12 18 C 12.82842712474619 18 13.5 18.67157287525381 13.5 19.5 z" stroke-linecap="round" />
</g>
		<g transform="matrix(1 0 0 1 7.5 7.5)"  >
<circle style="stroke: rgb(0,0,0); stroke-width: 2; stroke-dasharray: none; stroke-linecap: butt; stroke-dashoffset: 0; stroke-linejoin: miter; stroke-miterlimit: 4; fill: rgb(0,0,0); fill-rule: nonzero; opacity: 1;" vector-effect="non-scaling-stroke"  cx="0" cy="0" r="1.5" />
</g>
		<g transform="matrix(1 0 0 1 -7.5 7.5)"  >
<circle style="stroke: rgb(0,0,0); stroke-width: 2; stroke-dasharray: none; stroke-linecap: butt; stroke-dashoffset: 0; stroke-linejoin: miter; stroke-miterlimit: 4; fill: rgb(0,0,0); fill-rule: nonzero; opacity: 1;" vector-effect="non-scaling-stroke"  cx="0" cy="0" r="1.5" />
</g>
		<g transform="matrix(1 0 0 1 0 0)"  >
<path style="stroke: rgb(0,0,0); stroke-width: 2; stroke-dasharray: none; stroke-linecap: butt; stroke-dashoffset: 0; stroke-linejoin: miter; stroke-miterlimit: 4; fill: rgb(0,0,0); fill-rule: nonzero; opacity: 1;" vector-effect="non-scaling-stroke"  transform=" translate(-12, -12)" d="M 6 12 C 6 12.82842712474619 5.32842712474619 13.5 4.5 13.5 C 3.6715728752538097 13.5 3 12.82842712474619 3 12 C 3 11.17157287525381 3.6715728752538097 10.5 4.5 10.5 C 5.32842712474619 10.5 6 11.17157287525381 6 12 z M 13.5 12 C 13.5 12.82842712474619 12.82842712474619 13.5 12 13.5 C 11.17157287525381 13.5 10.5 12.82842712474619 10.5 12 C 10.5 11.17157287525381 11.17157287525381 10.5 12 10.5 C 12.82842712474619 10.5 13.5 11.17157287525381 13.5 12 z M 21 12 C 21 12.82842712474619 20.32842712474619 13.5 19.5 13.5 C 18.67157287525381 13.5 18 12.82842712474619 18 12 C 18 11.17157287525381 18.67157287525381 10.5 19.5 10.5 C 20.32842712474619 10.5 21 11.17157287525381 21 12 z" stroke-linecap="round" />
</g>
</g>
</g>
</svg>