<svg fill="none" height="24" viewBox="0 0 24 24" width="24" xmlns="http://www.w3.org/2000/svg"><g stroke="#292d32" stroke-linecap="round" stroke-linejoin="round" stroke-width="1.5"><path d="m13.3 8.10998 1.32 2.64002c.18.36.66.72 1.06.78l2.39.4c1.53.26 1.89 1.36.79 2.46l-1.86 1.86c-.31.31-.49.92-.39 1.36l.53 2.31c.42 1.82-.55 2.53-2.16 1.58l-2.24-1.33c-.41-.24-1.07-.24-1.48 0l-2.24004 1.33c-1.61.95-2.58001.24-2.16001-1.58l.53003-2.31c.1-.43-.08001-1.04-.39001-1.36l-1.85999-1.86c-1.1-1.1-.74002-2.21.78998-2.46l2.39001-.4c.4-.07.88-.42 1.06-.78l1.32003-2.64002c.71-1.43 1.89-1.43 2.6 0z"/><path d="m6 9v-7"/><path d="m18 9v-7"/><path d="m12 4v-2"/></g></svg>