<?xml version="1.0" encoding="UTF-8"?>
<svg version="1.1" xmlns="http://www.w3.org/2000/svg" width="674" height="370">
<path d="M0 0 C1.68477344 1.31037934 3.34808509 2.64843325 5 4 C6.64878416 4.70974152 8.31801384 5.37298741 10 6 C13.99233538 7.49417286 16.67699207 9.3231325 20 12 C23.89579082 13.2051727 25.55889096 13.19547388 29.33203125 11.5234375 C30.50194825 10.82335065 31.66189476 10.10639248 32.8125 9.375 C34.04817708 8.6328125 35.28385417 7.890625 36.51953125 7.1484375 C37.68047782 6.43357357 38.84069381 5.7175211 40 5 C50.06605204 -1.14742976 50.06605204 -1.14742976 55 0 C57.5 2.125 57.5 2.125 59 5 C58.27710583 8.92651149 57.5632308 10.57154526 54.35546875 13.01171875 C53.31003906 13.56472656 52.26460938 14.11773437 51.1875 14.6875 C50.14980469 15.24824219 49.11210937 15.80898437 48.04296875 16.38671875 C47.03878906 16.91910156 46.03460938 17.45148438 45 18 C41.18825295 20.2348636 37.47668886 22.60880015 33.76953125 25.01171875 C32 26 32 26 30 26 C30.01571045 26.9286084 30.0314209 27.8572168 30.04760742 28.81396484 C30.09868853 32.25428829 30.13632607 35.69420976 30.16479492 39.13476562 C30.179896 40.62473909 30.20037858 42.11466801 30.22631836 43.60449219 C30.26264584 45.7442523 30.27971221 47.88342566 30.29296875 50.0234375 C30.3086792 51.31169434 30.32438965 52.59995117 30.34057617 53.92724609 C30.17199097 55.44825928 30.17199097 55.44825928 30 57 C26.51131349 59.32579101 25.10281481 59.41865457 21 59 C18.84667969 57.9362793 18.84667969 57.9362793 17 56 C16.57285919 53.43505382 16.3952377 51.27677795 16.390625 48.70703125 C16.36582062 47.64798836 16.36582062 47.64798836 16.34051514 46.56755066 C16.29198712 44.31577908 16.27065562 42.06468291 16.25 39.8125 C16.22184401 38.28447114 16.19191709 36.75647381 16.16015625 35.22851562 C16.08622806 31.48573272 16.03668377 27.74332576 16 24 C15.21842529 23.69223633 14.43685059 23.38447266 13.6315918 23.06738281 C9.54599172 21.41024917 5.81610747 19.19606184 2 17 C0.64648438 16.23042969 0.64648438 16.23042969 -0.734375 15.4453125 C-1.62640625 14.92710937 -2.5184375 14.40890625 -3.4375 13.875 C-4.26121094 13.39804688 -5.08492188 12.92109375 -5.93359375 12.4296875 C-8 11 -8 11 -10 8 C-9.79362145 5.248286 -9.3262715 3.49799334 -7.8125 1.1875 C-5.05641317 -0.61821206 -3.22701096 -0.45178153 0 0 Z " fill="#E8E8E8" transform="translate(307,154)"/>
<path d="M0 0 C5.0496274 2.53717005 9.62016785 5.64723798 14.0625 9.125 C17.55156077 11.83792276 21.13105425 13.57814727 25.21484375 15.23828125 C27 16 27 16 28 17 C28.12593198 19.93364274 28.18868066 22.84245679 28.203125 25.77734375 C28.20882507 26.65902725 28.21452515 27.54071075 28.22039795 28.44911194 C28.22986205 30.317869 28.23638751 32.18664286 28.24023438 34.05541992 C28.2499475 36.92200648 28.28096028 39.78787858 28.3125 42.65429688 C28.31902892 44.46614156 28.32427983 46.27799139 28.328125 48.08984375 C28.3404718 48.9513353 28.3528186 49.81282684 28.36553955 50.70042419 C28.35644531 53.11694336 28.35644531 53.11694336 28 57 C24.53076119 59.31282587 23.07794425 59.42478586 19 59 C16.72605362 57.35112898 16.0778074 56.42471156 15.56762695 53.63989258 C15.54144287 52.73392334 15.51525879 51.8279541 15.48828125 50.89453125 C15.43510742 49.42016602 15.43510742 49.42016602 15.38085938 47.91601562 C15.35830078 46.89185547 15.33574219 45.86769531 15.3125 44.8125 C15.26125977 43.25885742 15.26125977 43.25885742 15.20898438 41.67382812 C15.12647358 39.1159934 15.05733428 36.55850277 15 34 C14.28714844 34.39832031 13.57429688 34.79664063 12.83984375 35.20703125 C9.90611297 36.82986214 6.95843999 38.42269911 4 40 C3.32582031 40.36351562 2.65164063 40.72703125 1.95703125 41.1015625 C-2.33391434 43.20284935 -5.40217946 43.10347693 -10 42 C-11 41 -11 41 -11.3125 37.6875 C-10.94077741 33.30117344 -10.25943602 32.76009481 -7 30 C-5.22562012 28.8946486 -3.40975443 27.85371178 -1.5625 26.875 C-0.63566406 26.37742187 0.29117187 25.87984375 1.24609375 25.3671875 C3.79282513 24.10285277 6.34441809 23.01210926 9 22 C6.91628913 19.7325269 5.02035303 18.34184489 2.2421875 17.02734375 C1.53449219 16.68509766 0.82679688 16.34285156 0.09765625 15.99023438 C-0.63582031 15.64283203 -1.36929687 15.29542969 -2.125 14.9375 C-9.86538462 11.26923077 -9.86538462 11.26923077 -11 9 C-11.57003257 2.72964169 -11.57003257 2.72964169 -9.4375 0 C-5.97696311 -1.41970744 -3.44925466 -1.1826016 0 0 Z " fill="#E8E8E8" transform="translate(413,95)"/>
<path d="M0 0 C0.99 0.66 1.98 1.32 3 2 C3.34057617 4.33837891 3.34057617 4.33837891 3.29296875 7.2265625 C3.2784668 8.7734375 3.2784668 8.7734375 3.26367188 10.3515625 C3.23853516 11.43179687 3.21339844 12.51203125 3.1875 13.625 C3.16719727 15.25695312 3.16719727 15.25695312 3.14648438 16.921875 C3.11104754 19.61507409 3.06164331 22.30729374 3 25 C10.94664917 21.96020162 10.94664917 21.96020162 18.25 17.6875 C22.20568908 15.26014534 24.41153578 15.32301348 29 16 C31.125 18.1875 31.125 18.1875 32 21 C31.62825863 23.97393098 30.7730653 25.38615162 28.42578125 27.25 C24.03709659 30.09863913 19.35161368 32.39367251 14.64453125 34.6640625 C10.93081555 36.54011976 7.38593189 38.69505391 3.8359375 40.86328125 C-0.48501198 42.59523208 -4.5599854 43.00186658 -8.88427734 41.22631836 C-10.77999642 40.16849597 -12.57374951 39.02389934 -14.375 37.8125 C-15.68042068 36.97883382 -16.98771827 36.14809937 -18.296875 35.3203125 C-18.92658203 34.91844727 -19.55628906 34.51658203 -20.20507812 34.10253906 C-22.60266753 32.62980868 -25.08573611 31.39631125 -27.625 30.1875 C-34.69029401 26.70793117 -34.69029401 26.70793117 -37 24 C-36.8125 20.25 -36.8125 20.25 -36 17 C-33.09146095 15.46918997 -30.96685148 14.75247273 -27.7265625 15.58203125 C-21.64369598 17.99023235 -15.80275869 20.987504 -10 24 C-10.00785522 23.16021606 -10.00785522 23.16021606 -10.01586914 22.3034668 C-10.03666691 19.76482263 -10.04966904 17.22619641 -10.0625 14.6875 C-10.07087891 13.80642578 -10.07925781 12.92535156 -10.08789062 12.01757812 C-10.09272461 10.74624023 -10.09272461 10.74624023 -10.09765625 9.44921875 C-10.10551147 8.27879028 -10.10551147 8.27879028 -10.11352539 7.0847168 C-10 5 -10 5 -9 2 C-5.53001271 -0.31332486 -4.07490752 -0.33957563 0 0 Z " fill="#E7E7E7" transform="translate(334,259)"/>
<path d="M0 0 C3.25 1 3.25 1 4.75 2.75 C5.38640922 5.61384147 5.22149931 7.22428768 4.25 10 C1.18299032 13.61599709 -2.23985698 15.49092393 -6.4375 17.625 C-10.84303288 19.53520803 -10.84303288 19.53520803 -13.75 23 C-13.09 23.226875 -12.43 23.45375 -11.75 23.6875 C-6.04705615 26.18253793 -0.22433954 29.66124651 4.25 34 C5.30902179 36.8240581 5.41594623 38.33621506 4.6875 41.25 C3.25 43 3.25 43 0.5625 43.9375 C-5.25754764 44.04731222 -9.26580086 41.39712056 -13.75 38 C-15.11592622 37.2807227 -16.49342802 36.58319935 -17.87890625 35.90234375 C-18.60279541 35.54519287 -19.32668457 35.18804199 -20.07250977 34.82006836 C-20.90286743 34.41413452 -20.90286743 34.41413452 -21.75 34 C-21.72643433 35.02154175 -21.72643433 35.02154175 -21.70239258 36.0637207 C-21.64006778 39.14656281 -21.60101742 42.22927244 -21.5625 45.3125 C-21.53736328 46.38435547 -21.51222656 47.45621094 -21.48632812 48.56054688 C-21.47182617 50.10258789 -21.47182617 50.10258789 -21.45703125 51.67578125 C-21.43346558 53.0975769 -21.43346558 53.0975769 -21.40942383 54.5480957 C-21.75 57 -21.75 57 -23.04956055 58.80151367 C-25.95707805 60.85076039 -28.33640616 60.48765626 -31.75 60 C-35.30355619 55.84996126 -35.08783726 51.67732607 -34.859375 46.48828125 C-34.83530579 45.67884567 -34.81123657 44.8694101 -34.78643799 44.03544617 C-34.73295135 42.33157193 -34.67198998 40.62791785 -34.60400391 38.92456055 C-34.49995318 36.31132406 -34.41789214 33.6981147 -34.33984375 31.08398438 C-34.28512632 29.42704083 -34.22917953 27.77013733 -34.171875 26.11328125 C-34.14575134 25.32995926 -34.11962769 24.54663727 -34.0927124 23.73957825 C-33.86760557 18.23521113 -33.86760557 18.23521113 -32.75 16 C-30.96484375 15.10546875 -30.96484375 15.10546875 -28.6875 14.1875 C-24.71773895 12.49877625 -21.20138268 10.50196241 -17.58984375 8.15625 C-15.07358318 6.57490578 -12.40669721 5.32834861 -9.75 4 C-8.780625 3.2575 -7.81125 2.515 -6.8125 1.75 C-3.75 0 -3.75 0 0 0 Z " fill="#E7E7E7" transform="translate(254.75,94)"/>
<path d="M0 0 C2.640625 1.35546875 2.640625 1.35546875 5.25 3.1875 C8.79828183 5.58186904 12.26046533 7.72052553 16.125 9.5625 C28.30542453 15.45813679 28.30542453 15.45813679 32 21 C31.79362145 23.751714 31.3262715 25.50200666 29.8125 27.8125 C26.99450106 29.65877517 25.31575309 29.51011586 22 29 C20.26914059 27.85697963 18.54295661 26.69997171 16.90625 25.42578125 C10.58679962 20.69914316 3.05751331 17.46245434 -4 14 C-4.59425781 14.43570313 -5.18851562 14.87140625 -5.80078125 15.3203125 C-11.2597682 19.24263283 -16.78191842 22.64403441 -22.75 25.73828125 C-25.1071583 26.92655789 -25.1071583 26.92655789 -27 29 C-30.57842586 29.4667512 -32.37243328 29.40228636 -35.4375 27.4375 C-37 25 -37 25 -37 21.4375 C-35.86060737 17.52083784 -35.30915237 17.11042881 -32 15 C-30.1010101 14.00709957 -28.1824189 13.05115932 -26.25 12.125 C-20.08584507 9.09541534 -14.39467185 5.77205717 -8.875 1.6875 C-5.47020521 -0.31096651 -3.89400476 -0.37683917 0 0 Z " fill="#E2E2E2" transform="translate(334,50)"/>
<path d="M0 0 C3.32596674 0.48503682 3.99274618 0.86801103 6 3.4375 C6.32280151 6.40258203 6.46802548 9.15328475 6.46875 12.12109375 C6.48017029 13.39896507 6.48017029 13.39896507 6.49182129 14.70265198 C6.50262397 16.503968 6.5054747 18.30534666 6.50097656 20.10668945 C6.50000462 22.86190355 6.54161229 25.6143291 6.5859375 28.36914062 C6.59114486 30.11978586 6.59383269 31.87044077 6.59375 33.62109375 C6.6183429 34.85562538 6.6183429 34.85562538 6.64343262 36.11509705 C6.57426871 41.84436084 6.57426871 41.84436084 3.64477539 44.87011719 C2.77199951 45.38735352 1.89922363 45.90458984 1 46.4375 C0.03964844 47.06269531 -0.92070312 47.68789062 -1.91015625 48.33203125 C-4.69064791 50.02375542 -7.4758796 51.70690964 -10.26708984 53.38085938 C-11.9519597 54.40820747 -13.61130624 55.47705241 -15.26953125 56.546875 C-23.92574627 61.99103539 -23.92574627 61.99103539 -28.0625 61.6875 C-31 60.4375 -31 60.4375 -33.0625 58.1875 C-34 55.4375 -34 55.4375 -33.3046875 52.94921875 C-31.84391793 50.13701865 -30.72571995 49.1615025 -28.0625 47.5 C-27.26585937 46.99984375 -26.46921875 46.4996875 -25.6484375 45.984375 C-21.97493626 43.8387902 -18.2488116 41.80592512 -14.48046875 39.83203125 C-11.97554072 38.49911392 -11.97554072 38.49911392 -9.80078125 36.76171875 C-8 35.4375 -8 35.4375 -6 35.4375 C-6.01571045 34.51936523 -6.0314209 33.60123047 -6.04760742 32.65527344 C-6.0988087 29.24099051 -6.13638479 25.82711696 -6.16479492 22.41259766 C-6.17985923 20.93629509 -6.20031482 19.46003712 -6.22631836 17.98388672 C-6.26280739 15.85893742 -6.27974933 13.73458099 -6.29296875 11.609375 C-6.3086792 10.3315918 -6.32438965 9.05380859 -6.34057617 7.73730469 C-5.85399935 3.0229159 -4.83452785 0.70503531 0 0 Z " fill="#E5E5E5" transform="translate(435,197.5625)"/>
<path d="M0 0 C3.44309658 0.58784576 4.43646877 1.691096 6.5625 4.4375 C6.91796875 7.53442383 6.91796875 7.53442383 6.75 11.14453125 C6.72808594 12.45357422 6.70617187 13.76261719 6.68359375 15.11132812 C6.6321053 17.18091877 6.56279665 19.2445774 6.44970703 21.31176758 C6.22032791 25.90099625 6.22707564 30.02295468 7.5625 34.4375 C11.17646618 37.7893964 15.08406134 39.48995965 19.5625 41.4375 C21.07547177 42.47309721 22.5638818 43.54771508 24 44.6875 C26.17944639 46.41289506 27.99703002 47.65938767 30.5 48.9375 C32.5625 50.4375 32.5625 50.4375 33.5 53.375 C33.59741272 58.14822319 33.59741272 58.14822319 31.5625 60.4375 C27.10103923 61.69557652 25.18362346 61.76073073 21.01953125 59.59375 C19.79148074 58.72674368 18.57700213 57.84027289 17.375 56.9375 C16.06592745 56.0061201 14.75469813 55.07776468 13.44140625 54.15234375 C12.46905029 53.45987549 12.46905029 53.45987549 11.47705078 52.75341797 C7.78452961 50.2154571 3.86712567 48.0863834 -0.046875 45.91015625 C-2.27205487 44.53941636 -3.771976 43.42942988 -5.4375 41.4375 C-5.73585467 38.53126282 -5.85782628 35.84380697 -5.8359375 32.9375 C-5.83880768 32.10541016 -5.84167786 31.27332031 -5.84463501 30.41601562 C-5.84667562 28.65754516 -5.84114593 26.89905199 -5.82861328 25.140625 C-5.81255902 22.44740087 -5.82846145 19.7556774 -5.84765625 17.0625 C-5.84567382 15.35416335 -5.84183014 13.64582764 -5.8359375 11.9375 C-5.84201019 11.13119141 -5.84808289 10.32488281 -5.8543396 9.49414062 C-5.7834909 3.86849745 -5.7834909 3.86849745 -4.06558228 1.72851562 C-2.4375 0.4375 -2.4375 0.4375 0 0 Z " fill="#EDEDED" transform="translate(226.4375,197.5625)"/>
<path d="M0 0 C3 1 3 1 4 3 C4.13106542 5.22682173 4.20283447 7.45724401 4.24609375 9.6875 C4.27902078 11.03906925 4.31223261 12.3906316 4.34570312 13.7421875 C4.39319812 15.87527893 4.43765307 18.00834005 4.47680664 20.14160156 C4.51644232 22.1988595 4.56799284 24.25555184 4.62109375 26.3125 C4.6461499 27.54613281 4.67120605 28.77976563 4.69702148 30.05078125 C4.69877664 33.11953844 4.69877664 33.11953844 7 35 C5.68 34.67 4.36 34.34 3 34 C2.97494385 33.16227051 2.9498877 32.32454102 2.92407227 31.46142578 C2.82899643 28.35647744 2.72975975 25.25169819 2.62768555 22.14697266 C2.56301749 20.14105193 2.50316894 18.13497772 2.44335938 16.12890625 C2.40146484 14.87207031 2.35957031 13.61523438 2.31640625 12.3203125 C2.27974854 11.15773926 2.24309082 9.99516602 2.20532227 8.79736328 C2.18178341 6.0464499 2.18178341 6.0464499 1 4 C1.33 3.34 1.66 2.68 2 2 C1.34 2 0.68 2 0 2 C0 1.34 0 0.68 0 0 Z " fill="#8E8E8E" transform="translate(229,199)"/>
<path d="M0 0 C0.66 0.33 1.32 0.66 2 1 C-0.75 4.875 -0.75 4.875 -3 6 C-3.65213292 8.02463255 -3.65213292 8.02463255 -4 10 C-4.25 6.6875 -4.25 6.6875 -4 3 C-2 1.0625 -2 1.0625 0 0 Z " fill="#A3A3A3" transform="translate(406,94)"/>
</svg>
