<?xml version="1.0" encoding="UTF-8" standalone="no" ?>
<!DOCTYPE svg PUBLIC "-//W3C//DTD SVG 1.1//EN" "http://www.w3.org/Graphics/SVG/1.1/DTD/svg11.dtd">
<svg xmlns="http://www.w3.org/2000/svg" xmlns:xlink="http://www.w3.org/1999/xlink" version="1.1" width="1080" height="1080" viewBox="0 0 1080 1080" xml:space="preserve">
<desc>Created with Fabric.js 5.2.4</desc>
<defs>
</defs>
<g transform="matrix(1 0 0 1 540 540)" id="d4ab2ef8-83ca-40b1-8912-3309ef3598dd"  >
<rect style="stroke: none; stroke-width: 1; stroke-dasharray: none; stroke-linecap: butt; stroke-dashoffset: 0; stroke-linejoin: miter; stroke-miterlimit: 4; fill: rgb(255,255,255); fill-rule: nonzero; opacity: 1; visibility: hidden;" vector-effect="non-scaling-stroke"  x="-540" y="-540" rx="0" ry="0" width="1080" height="1080" />
</g>
<g transform="matrix(1 0 0 1 540 540)" id="68946d50-4887-40f9-9200-096ea04a0bbd"  >
</g>
<g transform="matrix(-1 0 0 -1 540 492.04)" id="312e5062-a7e9-47f2-87f2-7ff462871f5d"  >
<path style="stroke: rgb(0,0,0); stroke-width: 0; stroke-dasharray: none; stroke-linecap: butt; stroke-dashoffset: 0; stroke-linejoin: miter; stroke-miterlimit: 4; fill: rgb(0,0,0); fill-rule: nonzero; opacity: 1;" vector-effect="non-scaling-stroke"  transform=" translate(-256, -256)" d="M 464 32 L 336 32 C 309.5 32 288 53.5 288 80 L 288 208 C 288 234.5 309.5 256 336 256 L 416 256 L 416 320 C 416 355.3 387.3 384 352 384 L 344 384 C 330.7 384 320 394.7 320 408 L 320 456 C 320 469.3 330.7 480 344 480 L 352 480 C 440.4 480 512 408.4 512 320 L 512 80 C 512 53.5 490.5 32 464 32 z M 176 32 L 48 32 C 21.5 32 0 53.5 0 80 L 0 208 C 0 234.5 21.5 256 48 256 L 128 256 L 128 320 C 128 355.3 99.3 384 64 384 L 56 384 C 42.7 384 32 394.7 32 408 L 32 456 C 32 469.3 42.7 480 56 480 L 64 480 C 152.4 480 224 408.4 224 320 L 224 80 C 224 53.5 202.5 32 176 32 z" stroke-linecap="round" />
</g>
</svg>